<svg width="1342" height="275" viewBox="0 0 1342 275" fill="none" xmlns="http://www.w3.org/2000/svg">
<path d="M1102.77 5.17795C1046.97 1.77016 990.758 -0.865876 935.378 8.1147C883.713 16.4927 831.687 12.1427 779.73 17.5775C701.506 25.76 624.657 38.0099 547.075 50.5344C486.16 60.368 429.855 77.739 376.58 109.269C346.766 126.914 325.254 154.922 292.883 169.309C284.508 173.031 291.326 188.413 294.514 194.435C299.173 203.235 313.45 208.88 322.903 210.75C384.531 222.94 448.413 239.204 511.018 244.36C543.037 246.996 575.192 245.61 607.278 246.154C662.226 247.086 716.925 249.701 771.899 247.296C815.347 245.396 856.095 238.886 898.179 228.208C958.9 212.801 1020.5 201.696 1080.91 184.972C1119.58 174.267 1157.07 163.01 1193.81 146.794C1213.72 138.006 1238.54 131.059 1251.89 112.532C1274.47 81.2228 1246.86 66.0076 1217.47 55.1026C1164.87 35.5891 1107.74 32.3172 1052.52 25.7352C1013.6 21.0954 975.257 15.3068 936.03 13.9882C834.114 10.5624 731.827 8.49785 629.956 14.6408C569.54 18.284 514.303 48.5841 454.73 58.692C407.164 66.7627 359.362 73.4348 311.809 81.5334C282.351 86.5501 254.976 94.9377 229.58 110.901C217.251 118.65 214.953 135.673 223.217 147.61C252.951 190.56 312.007 209.168 360.428 221.845C433.179 240.891 512.67 238.109 587.21 233.592C682.829 227.796 777.678 216.882 873.543 213.687C936.911 211.575 1001.12 209.545 1063.78 199.003C1084.38 195.538 1098.63 189.296 1115.5 177.793C1136.67 163.361 1166.08 141.617 1160.85 111.553C1158.32 96.9789 1148.57 87.2537 1136.38 79.5755C1094.69 53.3178 1045.99 45.1423 997.702 41.0715C915.618 34.1517 833.185 40.0816 751.015 36.0138C648.039 30.9159 542.741 31.7956 439.883 37.6453C313.379 44.8399 186.476 52.7028 61.2063 72.7231C39.3645 76.2138 6.33609 76.2229 2.14505 102.417C0.917293 110.09 7.77845 117.854 11.6079 123.953C28.9216 151.527 53.4539 161.748 83.8845 170.941C144.859 189.36 210.076 196.704 272.978 206.182C358.61 219.085 448.802 214.513 535.001 215.971C683.725 218.486 832.643 217.035 981.387 216.624C1045.34 216.447 1107.13 207.017 1170.64 203.408C1223.87 200.384 1277.4 201.94 1330.7 201.94C1346.19 201.94 1340.84 198.544 1331.35 194.272C1308.75 184.104 1281.52 180.85 1260.38 168.167C1242.64 157.526 1224.2 149.882 1203.27 146.794C1169.25 141.774 1131.88 146.142 1097.55 146.142C1045.68 146.142 993.924 149.079 942.067 149.079C875.6 149.079 808.455 150.848 742.042 153.484C674.948 156.146 606.545 155.193 539.896 163.762C514.381 167.043 490.375 181.404 466.151 189.54C434.332 200.228 405.526 213.326 374.949 226.576C354.96 235.238 336.723 256.735 322.903 273.401" stroke="#A400F1" stroke-width="3" stroke-linecap="round"/>
</svg>
